<svg xmlns="http://www.w3.org/2000/svg" viewBox="0 0 620 300" role="img" aria-labelledby="title desc">
  <title id="title">ALU 비트 연산 그림</title>
  <desc id="desc">입력 01001101과 01100111이 ALU로 들어가고 출력 01000101이 나온다.</desc>
  <rect width="620" height="300" fill="#fff"/>
  <g fill="none" stroke="#222" stroke-width="3" stroke-linejoin="round" stroke-linecap="round">
    <rect x="42" y="20" width="150" height="46"/>
    <rect x="386" y="20" width="150" height="46"/>
    <line x1="117" y1="66" x2="117" y2="105"/>
    <line x1="461" y1="66" x2="461" y2="105"/>
    <path d="M111 100 l6 10 l6 -10"/>
    <path d="M455 100 l6 10 l6 -10"/>
    <path d="M118 112 H255 L290 145 L325 112 H502 L462 205 H158 Z"/>
    <line x1="310" y1="205" x2="310" y2="238"/>
    <path d="M304 233 l6 10 l6 -10"/>
    <rect x="230" y="238" width="160" height="46"/>
  </g>
  <g fill="#222" font-family="Arial, 'Noto Sans KR', sans-serif" text-anchor="middle">
    <text x="117" y="51" font-size="28">01001101</text>
    <text x="461" y="51" font-size="28">01100111</text>
    <text x="310" y="167" font-size="30" font-weight="700">ALU</text>
    <text x="310" y="270" font-size="28">01000101</text>
  </g>
</svg>
