<svg xmlns="http://www.w3.org/2000/svg" viewBox="0 0 760 260" role="img" aria-labelledby="title desc">
  <title id="title">A, B, C 입력 논리회로</title>
  <desc id="desc">A와 B가 위쪽 AND 게이트에 입력되고, B는 NOT 게이트를 거쳐 C와 아래쪽 AND 게이트에 입력된 뒤 두 AND 출력이 OR 게이트에서 합쳐져 Y가 된다.</desc>
  <rect width="760" height="260" fill="#fff"/>
  <g stroke="#222" stroke-width="3" fill="none" stroke-linecap="round" stroke-linejoin="round">
    <line x1="38" y1="46" x2="180" y2="46"/>
    <line x1="38" y1="98" x2="180" y2="98"/>
    <line x1="38" y1="190" x2="250" y2="190"/>
    <path d="M180 35 H226 C255 35 270 49 270 72 C270 95 255 109 226 109 H180 Z"/>
    <line x1="270" y1="72" x2="425" y2="72"/>
    <line x1="105" y1="98" x2="105" y2="142"/>
    <path d="M105 142 L160 115 L160 169 Z"/>
    <circle cx="174" cy="142" r="10"/>
    <line x1="184" y1="142" x2="250" y2="142"/>
    <path d="M250 129 H296 C325 129 340 143 340 166 C340 189 325 203 296 203 H250 Z"/>
    <line x1="250" y1="190" x2="250" y2="190"/>
    <line x1="340" y1="166" x2="425" y2="166"/>
    <path d="M425 52 C462 58 499 79 525 119 C499 159 462 180 425 186 C448 150 448 88 425 52 Z"/>
    <path d="M425 52 C471 71 471 167 425 186"/>
    <line x1="525" y1="119" x2="620" y2="119"/>
  </g>
  <g fill="#222" font-family="Arial, 'Noto Sans KR', sans-serif" font-size="28">
    <text x="16" y="55">A</text>
    <text x="16" y="107">B</text>
    <text x="16" y="199">C</text>
    <text x="634" y="128">Y</text>
  </g>
</svg>
